<mxfile host="Electron" agent="Mozilla/5.0 (Macintosh; Intel Mac OS X 10_15_7) AppleWebKit/537.36 (KHTML, like Gecko) draw.io/28.2.8 Chrome/140.0.7339.240 Electron/38.4.0 Safari/537.36" version="28.2.8">
  <diagram name="Page-1" id="i4q4rQ7qKlnmohWg2s38">
    <mxGraphModel dx="1216" dy="905" grid="1" gridSize="10" guides="1" tooltips="1" connect="1" arrows="1" fold="1" page="1" pageScale="1" pageWidth="850" pageHeight="1100" math="0" shadow="0">
      <root>
        <mxCell id="0" />
        <mxCell id="1" parent="0" />
        <mxCell id="Wa7wuxHiSN3S0TaXRSGe-1" value="" style="rounded=0;whiteSpace=wrap;html=1;" vertex="1" parent="1">
          <mxGeometry x="240" y="90" width="380" height="530" as="geometry" />
        </mxCell>
        <mxCell id="Wa7wuxHiSN3S0TaXRSGe-2" style="edgeStyle=orthogonalEdgeStyle;rounded=0;orthogonalLoop=1;jettySize=auto;html=1;entryX=0;entryY=0.5;entryDx=0;entryDy=0;endArrow=none;endFill=0;" edge="1" parent="1" source="Wa7wuxHiSN3S0TaXRSGe-3" target="Wa7wuxHiSN3S0TaXRSGe-9">
          <mxGeometry relative="1" as="geometry" />
        </mxCell>
        <mxCell id="Wa7wuxHiSN3S0TaXRSGe-3" value="khách hàng" style="shape=umlActor;verticalLabelPosition=bottom;verticalAlign=top;html=1;outlineConnect=0;" vertex="1" parent="1">
          <mxGeometry x="130" y="140" width="30" height="60" as="geometry" />
        </mxCell>
        <mxCell id="Wa7wuxHiSN3S0TaXRSGe-20" style="edgeStyle=orthogonalEdgeStyle;rounded=0;orthogonalLoop=1;jettySize=auto;html=1;entryX=0;entryY=0.5;entryDx=0;entryDy=0;endArrow=none;endFill=0;" edge="1" parent="1" source="Wa7wuxHiSN3S0TaXRSGe-4" target="Wa7wuxHiSN3S0TaXRSGe-17">
          <mxGeometry relative="1" as="geometry" />
        </mxCell>
        <mxCell id="Wa7wuxHiSN3S0TaXRSGe-4" value="tài xế" style="shape=umlActor;verticalLabelPosition=bottom;verticalAlign=top;html=1;outlineConnect=0;" vertex="1" parent="1">
          <mxGeometry x="130" y="440" width="30" height="60" as="geometry" />
        </mxCell>
        <mxCell id="Wa7wuxHiSN3S0TaXRSGe-22" style="edgeStyle=orthogonalEdgeStyle;rounded=0;orthogonalLoop=1;jettySize=auto;html=1;entryX=1;entryY=0.5;entryDx=0;entryDy=0;endArrow=none;endFill=0;" edge="1" parent="1" source="Wa7wuxHiSN3S0TaXRSGe-5" target="Wa7wuxHiSN3S0TaXRSGe-21">
          <mxGeometry relative="1" as="geometry" />
        </mxCell>
        <mxCell id="Wa7wuxHiSN3S0TaXRSGe-5" value="hệ thống thanh toán" style="shape=umlActor;verticalLabelPosition=bottom;verticalAlign=top;html=1;outlineConnect=0;" vertex="1" parent="1">
          <mxGeometry x="690" y="360" width="30" height="60" as="geometry" />
        </mxCell>
        <mxCell id="Wa7wuxHiSN3S0TaXRSGe-6" style="edgeStyle=orthogonalEdgeStyle;rounded=0;orthogonalLoop=1;jettySize=auto;html=1;entryX=1;entryY=0.5;entryDx=0;entryDy=0;dashed=1;" edge="1" parent="1" source="Wa7wuxHiSN3S0TaXRSGe-7" target="Wa7wuxHiSN3S0TaXRSGe-9">
          <mxGeometry relative="1" as="geometry" />
        </mxCell>
        <mxCell id="Wa7wuxHiSN3S0TaXRSGe-7" value="xem vị trí tài xế" style="ellipse;whiteSpace=wrap;html=1;" vertex="1" parent="1">
          <mxGeometry x="490" y="130" width="120" height="80" as="geometry" />
        </mxCell>
        <mxCell id="Wa7wuxHiSN3S0TaXRSGe-8" style="edgeStyle=orthogonalEdgeStyle;rounded=0;orthogonalLoop=1;jettySize=auto;html=1;dashed=1;" edge="1" parent="1" source="Wa7wuxHiSN3S0TaXRSGe-9" target="Wa7wuxHiSN3S0TaXRSGe-10">
          <mxGeometry relative="1" as="geometry" />
        </mxCell>
        <mxCell id="Wa7wuxHiSN3S0TaXRSGe-9" value="đặt xe" style="ellipse;whiteSpace=wrap;html=1;" vertex="1" parent="1">
          <mxGeometry x="290" y="130" width="120" height="80" as="geometry" />
        </mxCell>
        <mxCell id="Wa7wuxHiSN3S0TaXRSGe-10" value="thanh toán" style="ellipse;whiteSpace=wrap;html=1;" vertex="1" parent="1">
          <mxGeometry x="290" y="290" width="120" height="80" as="geometry" />
        </mxCell>
        <mxCell id="Wa7wuxHiSN3S0TaXRSGe-13" value="&amp;lt;&amp;lt;extend&amp;gt;&amp;gt;" style="text;html=1;whiteSpace=wrap;strokeColor=none;fillColor=none;align=center;verticalAlign=middle;rounded=0;" vertex="1" parent="1">
          <mxGeometry x="425" y="140" width="60" height="30" as="geometry" />
        </mxCell>
        <mxCell id="Wa7wuxHiSN3S0TaXRSGe-14" value="&amp;lt;&amp;lt;include&amp;gt;&amp;gt;" style="text;html=1;whiteSpace=wrap;strokeColor=none;fillColor=none;align=center;verticalAlign=middle;rounded=0;" vertex="1" parent="1">
          <mxGeometry x="360" y="230" width="60" height="30" as="geometry" />
        </mxCell>
        <mxCell id="Wa7wuxHiSN3S0TaXRSGe-16" value="&lt;h1 style=&quot;margin-top: 0px;&quot;&gt;Grab&lt;/h1&gt;" style="text;html=1;whiteSpace=wrap;overflow=hidden;rounded=0;" vertex="1" parent="1">
          <mxGeometry x="380" y="20" width="180" height="120" as="geometry" />
        </mxCell>
        <mxCell id="Wa7wuxHiSN3S0TaXRSGe-17" value="Nhận chuyến" style="ellipse;whiteSpace=wrap;html=1;" vertex="1" parent="1">
          <mxGeometry x="290" y="430" width="120" height="80" as="geometry" />
        </mxCell>
        <mxCell id="Wa7wuxHiSN3S0TaXRSGe-21" value="nhận thông tin đặt xe của người dùng và gửi yêu cầu cho tài xế ở gần" style="ellipse;whiteSpace=wrap;html=1;" vertex="1" parent="1">
          <mxGeometry x="425" y="350" width="160" height="80" as="geometry" />
        </mxCell>
      </root>
    </mxGraphModel>
  </diagram>
</mxfile>
